<?xml version="1.0" encoding="UTF-8"?><svg id="Layer_2" xmlns="http://www.w3.org/2000/svg" xmlns:xlink="http://www.w3.org/1999/xlink" viewBox="0 0 1080 1080"><defs><style>.cls-1{fill:url(#linear-gradient-2);}.cls-2{fill:url(#linear-gradient-6);}.cls-3{clip-path:url(#clippath-1);}.cls-4{fill:url(#linear-gradient-5);}.cls-5{clip-path:url(#clippath);}.cls-6{fill:url(#linear-gradient-7);}.cls-7{fill:url(#linear-gradient-3);}.cls-8{fill:url(#linear-gradient);}.cls-9{fill:url(#linear-gradient-4);}.cls-10{fill:url(#linear-gradient-8);}</style><linearGradient id="linear-gradient" x1="876.526" y1="899.283" x2="120.675" y2="92.319" gradientUnits="userSpaceOnUse"><stop offset="0" stop-color="#5cc1de"/><stop offset=".159" stop-color="#50b2dc"/><stop offset=".44" stop-color="#3f9edb"/><stop offset=".721" stop-color="#3692da"/><stop offset="1" stop-color="#338eda"/></linearGradient><linearGradient id="linear-gradient-2" x1="525.103" y1="623" x2="553.897" y2="623" xlink:href="#linear-gradient"/><linearGradient id="linear-gradient-3" x1="568.497" y1="623" x2="607.567" y2="623" xlink:href="#linear-gradient"/><linearGradient id="linear-gradient-4" x1="568.497" y1="623" x2="607.567" y2="623" xlink:href="#linear-gradient"/><clipPath id="clippath"><path class="cls-9" d="m607.567,616.441v12.738c0,2.226-1.211,4.275-3.161,5.349l-26.857,14.789c-4.11,2.263-9.131-.762-9.051-5.453l.007-.425c.038-2.249,1.31-4.294,3.309-5.324l19.216-9.899c4.413-2.274,4.413-8.583,0-10.857l-19.218-9.9c-1.998-1.029-3.269-3.073-3.309-5.32h0c-.083-4.664,4.883-7.695,8.993-5.489l26.853,14.41c1.982,1.064,3.219,3.131,3.219,5.381Z"/></clipPath><linearGradient id="linear-gradient-5" x1="152.737" y1="702.575" x2="910.78" y2="702.575" xlink:href="#linear-gradient"/><linearGradient id="linear-gradient-6" x1="472.433" y1="623" x2="511.503" y2="623" xlink:href="#linear-gradient"/><linearGradient id="linear-gradient-7" x1="472.433" y1="623" x2="511.503" y2="623" xlink:href="#linear-gradient"/><clipPath id="clippath-1"><path class="cls-6" d="m475.652,611.061l26.853-14.41c4.11-2.206,9.076.825,8.993,5.489h0c-.04,2.247-1.311,4.291-3.309,5.32l-19.218,9.9c-4.413,2.274-4.413,8.583,0,10.857l19.216,9.899c1.999,1.03,3.271,3.076,3.309,5.324l.007.425c.08,4.691-4.941,7.716-9.051,5.453l-26.857-14.789c-1.95-1.074-3.161-3.123-3.161-5.349v-12.738c0-2.25,1.237-4.317,3.219-5.381Z"/></clipPath><linearGradient id="linear-gradient-8" x1="169.22" y1="702.575" x2="927.263" y2="702.575" xlink:href="#linear-gradient"/></defs><g><rect class="cls-8" x="-9.5" y="-9.5" width="1099" height="1099"/><path d="m1089-9v1098H-9V-9h1098m1-1H-10v1100h1100V-10h0Z"/></g><path d="m790.188,732.826c0-13.531-10.969-24.5-24.5-24.5h-2.117l-45.669-73.111c5.174-5.618,8.762-13.106,8.762-23.079,0-35.814-46.238-39.617-46.238-39.617,0,0-.393,1.21-.97,3.418v-1.545c0-11.029-7.951-20.454-18.825-22.294-11.103-1.879-26.072-4.283-42.276-6.516-1.8-7.021-21.513-12.107-46.943-12.107h-18.705l-.013-13.304h66.75c62.458,0,113.821-47.497,119.944-108.341,1.326.921,2.934,1.465,4.671,1.463,4.521-.004,8.183-3.673,8.179-8.195l-.007-7.553c6.845-3.913,17.163-13.939,17.163-38.841s-10.394-35.003-17.238-38.885l-.003-3.518c-.005-4.521-3.673-8.183-8.195-8.179-1.436.001-2.784.375-3.956,1.025v-5.013c0-66.581-53.975-120.556-120.556-120.556h-151.8c-66.581,0-120.556,53.975-120.556,120.556v5.591c-1.357-1.001-3.028-1.601-4.843-1.603-4.522-.004-8.19,3.657-8.195,8.179l-.003,3.518c-6.845,3.882-17.239,13.891-17.239,38.885s10.317,34.929,17.163,38.841l-.007,7.553c-.004,4.521,3.657,8.19,8.179,8.195,2.119.002,4.044-.808,5.499-2.127,5.815,61.162,57.318,109.005,120.003,109.005h64.491l.013,13.304h-17.855c-26.051,0-48.583,5.338-49.643,12.624-14.949,2.1-28.643,4.302-38.924,6.044-10.857,1.839-18.981,11.237-18.981,22.249v2.977c-.769-3.114-1.333-4.85-1.333-4.85,0,0-35.766,2.947-44.382,28.025l-59.209-36.986c5.578-6.951,7.158-16.704,3.254-25.391l-51.724-129.25c-5.546-12.342-20.048-17.851-32.389-12.304l-32.489,14.601c-12.342,5.546-17.851,20.048-12.304,32.389l60.985,125.088c5.546,12.342,20.048,17.851,32.389,12.304l12.436-5.589,79.558,49.697c9.425,23.813,43.875,26.65,43.875,26.65.482-1.558.923-3.112,1.333-4.661v80.556c0,20.354,7.179,40.05,20.255,55.647,5.862,6.992,12.186,14.582,18.661,22.4l.799,1.648c7.482,9.103,15.099,18.472,22.444,27.55l-1.118-2.295c8.198,10.045,16.071,19.788,22.972,28.463,4.463,5.61,10.092,10.058,15.999,13.571,22.59,13.436,50.938,13.438,73.522-.008,5.899-3.512,11.521-7.958,15.98-13.563,6.398-8.043,13.591-17.005,21.089-26.273l-.051.105c7.344-9.079,14.962-18.448,22.444-27.55l.023-.048c6.665-8.109,13.204-16,19.292-23.267,13.165-15.715,20.4-35.548,20.4-56.049v-79.543c.306,1.104.627,2.21.97,3.317,0,0,9.779-.807,20.342-5.159l38.575,61.754c-13.122.464-23.619,11.242-23.619,24.477l-4.352,139.095c0,13.531,10.969,24.5,24.5,24.5h35.619c13.531,0,24.5-10.969,24.5-24.5l-5.802-139.095Z"/><g><path class="cls-1" d="m547.292,584.083h0c4.249-.083,7.425,3.881,6.417,8.01l-15.836,64.886c-.708,2.9-3.306,4.94-6.291,4.94h-.001c-4.198,0-7.286-3.933-6.291-8.011l15.837-64.886c.697-2.854,3.227-4.882,6.165-4.939Z"/><g><path class="cls-7" d="m607.567,616.441v12.738c0,2.226-1.211,4.275-3.161,5.349l-26.857,14.789c-4.11,2.263-9.131-.762-9.051-5.453l.007-.425c.038-2.249,1.31-4.294,3.309-5.324l19.216-9.899c4.413-2.274,4.413-8.583,0-10.857l-19.218-9.9c-1.998-1.029-3.269-3.073-3.309-5.32h0c-.083-4.664,4.883-7.695,8.993-5.489l26.853,14.41c1.982,1.064,3.219,3.131,3.219,5.381Z"/><g class="cls-5"><g><rect class="cls-4" x="152.737" y="327.987" width="758.043" height="749.177"/><path d="m910.28,328.487v748.177H153.237V328.487h757.042m1-1H152.237v750.177h759.042V327.487h0Z"/></g></g></g><g><path class="cls-2" d="m475.652,611.061l26.853-14.41c4.11-2.206,9.076.825,8.993,5.489h0c-.04,2.247-1.311,4.291-3.309,5.32l-19.218,9.9c-4.413,2.274-4.413,8.583,0,10.857l19.216,9.899c1.999,1.03,3.271,3.076,3.309,5.324l.007.425c.08,4.691-4.941,7.716-9.051,5.453l-26.857-14.789c-1.95-1.074-3.161-3.123-3.161-5.349v-12.738c0-2.25,1.237-4.317,3.219-5.381Z"/><g class="cls-3"><g><rect class="cls-10" x="169.22" y="327.987" width="758.043" height="749.177"/><path d="m926.763,328.487v748.177H169.72V328.487h757.043m1-1H168.72v750.177h759.043V327.487h0Z"/></g></g></g></g></svg>